<svg width="415" height="415" fill="none" xmlns="http://www.w3.org/2000/svg"><path d="M120.533 29.017H37.184v120.806h83.349V29.017z" fill="#E0E0E0"/><path d="M116.358 29.017H33.009v120.806h83.349V29.017z" fill="#F5F5F5"/><path d="M106.008 42.106h-62.64v94.637h62.64V42.106z" fill="#fff"/><path d="M105.999 136.743v-6.997c0-4.532 0-11.147-.058-19.497 0-16.683-.058-40.313-.099-68.143l.207.207-62.673.017.224-.224c0 35.69 0 68.616-.05 94.62l-.174-.183 45.583.1h15.961-15.828l-45.724.307h-.208v-.183c0-26.02 0-58.93-.05-94.62v-.232h63.13v.208c0 27.88-.075 51.56-.1 68.284 0 8.3 0 14.94-.058 19.447v6.465c0 .307-.083.424-.083.424z" fill="#E0E0E0"/><path d="M116.59 29.05a13.814 13.814 0 01-1.486 2.158 153.695 153.695 0 01-3.909 4.98 103.947 103.947 0 01-4.15 4.79c-.552.675-1.163 1.3-1.826 1.867a14.95 14.95 0 011.585-2.075c1.121-1.362 2.49-3.03 4.018-4.873l4.008-4.872a16.71 16.71 0 011.76-1.975z" fill="#E0E0E0"/><path d="M106.323 136.436a76.98 76.98 0 0010.923 13.661l-10.923-13.661z" fill="#fff"/><path d="M117.246 150.097a12.074 12.074 0 01-1.909-1.726 60.94 60.94 0 01-4.15-4.648 59.51 59.51 0 01-3.627-5.046 12.45 12.45 0 01-1.27-2.241c.557.651 1.07 1.338 1.535 2.058a133.37 133.37 0 003.71 4.98c1.503 1.926 2.947 3.527 4.001 4.706a18.177 18.177 0 011.71 1.917z" fill="#E0E0E0"/><path d="M33 149.732l10.915-13.471-10.914 13.471z" fill="#fff"/><path d="M43.915 136.261a80.361 80.361 0 01-5.287 6.881 86.045 86.045 0 01-5.627 6.59 81.138 81.138 0 015.279-6.881 82.975 82.975 0 015.635-6.59zM33.01 29.05a75.842 75.842 0 015.294 6.333 73.744 73.744 0 014.98 6.64 75.193 75.193 0 01-5.295-6.341 73.013 73.013 0 01-4.98-6.632zm53.476 32.27H65.512v59.553h20.974V61.32z" fill="#E0E0E0"/><path d="M334.266 289.338H185.538v68.591h148.728v-68.591z" fill="#F5F5F5"/><path d="M330.73 354.7H188.941v-61.71H330.73v61.71zm-140.868-.921h139.939v-59.901H189.862v59.901zm180.741-64.441h-36.337v68.591h36.337v-68.591z" fill="#E0E0E0"/><path d="M189.406 312.08h140.859a.19.19 0 00.109-.067.188.188 0 000-.24.188.188 0 00-.109-.066H189.406a.191.191 0 00-.109.066.195.195 0 000 .24.193.193 0 00.109.067z" fill="#E0E0E0"/><path d="M260.296 311.872c.39-6.204.407-12.426.05-18.633a.19.19 0 00-.191-.191.192.192 0 00-.191.191 153.426 153.426 0 00.05 18.633.141.141 0 00.241.1.141.141 0 00.041-.1zm37.915-9.312a1.927 1.927 0 01-3.29 1.359 1.928 1.928 0 011.372-3.285 1.926 1.926 0 011.918 1.926zm-73.928 0a1.918 1.918 0 11-3.835-.02 1.918 1.918 0 013.835.02zm37.474 21.265a1.928 1.928 0 01-1.183 1.784 1.92 1.92 0 01-2.101-.412 1.92 1.92 0 01-.421-2.099 1.924 1.924 0 012.516-1.047 1.916 1.916 0 011.189 1.774zm-58.44 34.113l-7.653 43.06h4.308l14.118-43.06h-10.773zm120.433 0l6.399 43.135h-4.308l-12.865-43.135h10.774zm28.751 0l7.254 43.135h-4.308l-13.719-43.135h10.773zm-90.877-14.7a1.917 1.917 0 11-1.917-1.917 1.91 1.91 0 011.917 1.917zm-72.218-9.935h140.859a.19.19 0 000-.373H189.406a.191.191 0 00-.109.066.195.195 0 000 .241.191.191 0 00.109.066zm87.113 46.508l-.045-8.507-41.806.219.044 8.507 41.807-.219z" fill="#E0E0E0"/><path d="M281.533 401.263l-.069-13.222-46.595.244.069 13.222 46.595-.244z" fill="#F5F5F5"/><path d="M272.58 401.197c-.31-4.402-.31-8.82 0-13.222a97.56 97.56 0 010 13.222zm1.951 0a97.56 97.56 0 010-13.222c.31 4.402.31 8.82 0 13.222zm-32.561 0a97.56 97.56 0 010-13.222 97.56 97.56 0 010 13.222zm1.959 0a97.56 97.56 0 010-13.222 97.56 97.56 0 010 13.222zm4.241-6.399c0-.125 4.706-.224 10.499-.224 5.794 0 10.5.099 10.5.224 0 .124-4.698.232-10.5.232-5.801 0-10.499-.099-10.499-.232z" fill="#E0E0E0"/><path d="M299.039 387.972l-.045-8.508-57.493.301.044 8.508 57.494-.301z" fill="#EBEBEB"/><path d="M290.815 386.938a2.763 2.763 0 01-2.569-1.678 2.75 2.75 0 01.576-3.014 2.754 2.754 0 014.716 1.936 2.745 2.745 0 01-2.723 2.756zm-7.47-1.901v-1.702h-38.487v1.702h38.487z" fill="#E0E0E0"/><path d="M377.7 40.346H156.521v221.179H377.7V40.346z" fill="#FAFAFA"/><path d="M377.7 261.525c0-1.594-.075-88.553-.183-221.179l.183.191H156.546l.216-.216V261.5l-.191-.183 221.179.183-221.179.191h-.182V40.106h221.585v.182c-.199 132.684-.266 219.643-.274 221.237z" fill="#263238"/><path d="M222.158 68.467h2.423v4.656a7.883 7.883 0 01-4.631 1.46c-3.602 0-6.258-2.49-6.258-5.934s2.656-5.934 6.308-5.934a6.117 6.117 0 014.797 2.025l-1.66 1.577a3.882 3.882 0 00-2.971-1.295 3.668 3.668 0 100 7.337 4.26 4.26 0 002.067-.49l-.075-3.402zm13.288 2.233h-6.64a2.36 2.36 0 002.49 1.767 2.998 2.998 0 002.216-.83l1.378 1.453a4.606 4.606 0 01-3.635 1.427c-3.055 0-5.038-1.917-5.038-4.54a4.481 4.481 0 011.372-3.286 4.492 4.492 0 013.334-1.254 4.362 4.362 0 014.301 2.785c.22.57.318 1.179.289 1.788-.017.2-.05.474-.067.69zm-6.706-1.495h4.349a2.208 2.208 0 00-4.349 0zm14.143 4.756a3.676 3.676 0 01-2.083.556c-2.075 0-3.32-1.07-3.32-3.162v-3.627h-1.353v-1.967h1.353V63.62h2.556v2.14h2.2v1.968h-2.2v3.594a1.04 1.04 0 00.274.845 1.027 1.027 0 00.83.317c.37.007.733-.11 1.029-.332l.714 1.81zm5.768-11.047a1.466 1.466 0 01.996-1.357c.19-.064.39-.088.59-.07a1.435 1.435 0 011.593 1.377 1.595 1.595 0 01-1.566 1.506 1.594 1.594 0 01-1.613-1.456zM249 65.57h2.49v8.815H249V65.57zm13.903 3.768v5.047h-2.557V69.72c0-1.42-.656-2.075-1.784-2.075-1.129 0-2.109.747-2.109 2.374v4.357h-2.556V65.57h2.44v1.03a3.852 3.852 0 012.914-1.163c2.083 0 3.652 1.212 3.652 3.901zm12.657 4.623a3.668 3.668 0 01-2.075.556c-2.083 0-3.32-1.07-3.32-3.162v-3.627h-1.361v-1.967h1.361V63.62h2.556v2.14h2.192v1.968h-2.192v3.594a1.023 1.023 0 001.096 1.162c.371.007.733-.11 1.029-.332l.714 1.81zm.481-3.984c0-2.656 2.051-4.54 4.856-4.54 2.805 0 4.831 1.884 4.831 4.54s-2.026 4.54-4.831 4.54c-2.805 0-4.856-1.884-4.856-4.54zm7.097 0a2.259 2.259 0 10-3.479 2.077 2.26 2.26 0 001.238.363 2.217 2.217 0 002.241-2.44zm13.172-4.407v8.815h-2.432v-1.046a3.578 3.578 0 01-2.731 1.178c-2.216 0-3.776-1.245-3.776-3.967v-4.98h2.556v4.606c0 1.47.656 2.125 1.793 2.125s2.034-.755 2.034-2.374V65.57h2.556zm1.726 4.407c0-2.656 2.042-4.54 4.914-4.54a4.059 4.059 0 013.951 2.241l-1.984 1.07a2.186 2.186 0 00-1.967-1.21 2.438 2.438 0 00-2.44 2.44 2.439 2.439 0 002.44 2.44 2.159 2.159 0 001.984-1.212l1.983 1.079a4.087 4.087 0 01-3.967 2.232c-2.872 0-4.914-1.884-4.914-4.54zm19.281-.639v5.047h-2.556V69.72c0-1.42-.656-2.075-1.785-2.075-1.128 0-2.116.747-2.116 2.374v4.357h-2.556V62.25h2.556v4.233a3.88 3.88 0 012.805-1.046c2.084 0 3.652 1.212 3.652 3.901z" fill="#0284C7"/><path d="M325.816 83.34c0 .117-27.057.216-60.423.216s-60.416-.1-60.416-.216c0-.116 27.041-.216 60.416-.216 33.374 0 60.423.1 60.423.216zm19.522 38.114v-12.525l.075.083-160.074.133.216-.216v12.517l-.216-.216 113.569.091 34.03.066h11.637-11.554l-34.03.067-113.71.091h-.216V108.73h.224l160.074.133h.083v.083c0 4.092 0 7.229-.041 9.346v2.382c0 .547-.067.78-.067.78zm-156.322-21.339v3.635h-.689l-1.809-2.208v2.208h-.83v-3.635h.689l1.809 2.207v-2.207h.83zm3.278 2.042v1.593h-.763v-.348a.926.926 0 01-.83.39c-.656 0-1.046-.366-1.046-.83 0-.465.349-.83 1.204-.83h.639c0-.349-.208-.548-.639-.548a1.347 1.347 0 00-.83.257l-.291-.564a2.145 2.145 0 011.204-.341c.854-.024 1.352.374 1.352 1.221zm-.83.705v-.282h-.564c-.373 0-.498.141-.498.324 0 .182.174.34.457.34a.594.594 0 00.622-.382h-.017zm6.275-.714v1.602h-.83v-1.477c0-.449-.207-.656-.531-.656-.324 0-.614.232-.614.73v1.403h-.83v-1.477c0-.449-.191-.656-.531-.656-.341 0-.615.232-.615.73v1.403h-.83v-2.797h.772v.307a1.138 1.138 0 01.88-.365 1.022 1.022 0 01.913.456 1.28 1.28 0 011.013-.456 1.076 1.076 0 01.918.322 1.087 1.087 0 01.285.931zm3.478.432h-2.108a.747.747 0 00.83.564.922.922 0 00.697-.274l.432.465a1.663 1.663 0 01-2.389-.183 1.66 1.66 0 01-.359-.805 1.434 1.434 0 01.439-1.039 1.417 1.417 0 011.055-.397 1.375 1.375 0 011.364.884c.069.182.1.375.089.569-.013.073-.03.145-.05.216zm-2.125-.473h1.378a.7.7 0 00-.689-.59.696.696 0 00-.689.59zm146.246 50.613v-12.525l.075.083-160.074.133.216-.216v12.525l-.216-.216 113.569.091 34.03.067h11.637-11.554l-34.03.066-113.71.092h-.216v-12.948h.224l160.074.141h.083v.074c0 4.092 0 7.23-.041 9.346v2.382c0 .548-.067.905-.067.905zm0 62.756v-12.981c0-8.424-.041-20.75-.075-36.18l.133.142-160.074.074.216-.216v49.195l-.207-.208 114.457.091 33.499.067h12.159-12.027l-33.449.058-114.606.091h-.216v-49.543h.224l160.074.083h.141v.133c0 15.505-.058 27.814-.075 36.263v12.118c0 .581-.174.813-.174.813zm-156.837-81.165v.68h-2.813v-3.635h2.722v.672h-1.917v.83h1.66v.656h-1.66v.83l2.008-.033zm5.329-.922v1.602H193v-1.477c0-.448-.199-.656-.523-.656s-.622.232-.622.73v1.403h-.83v-1.477c0-.448-.2-.656-.532-.656s-.614.232-.614.73v1.403h-.83v-2.797h.78v.324a1.115 1.115 0 01.872-.365 1.039 1.039 0 01.921.456 1.263 1.263 0 011.004-.456 1.078 1.078 0 01.907.321 1.08 1.08 0 01.297.915zm3.195.008v1.594h-.755v-.349a.924.924 0 01-.83.391c-.656 0-1.046-.366-1.046-.83 0-.465.349-.83 1.204-.83h.639c0-.349-.208-.548-.639-.548a1.349 1.349 0 00-.83.257l-.291-.564c.359-.23.778-.348 1.204-.341.855-.025 1.344.374 1.344 1.22zm-.83.706v-.282h-.547c-.382 0-.507.141-.507.323 0 .183.175.341.465.341a.59.59 0 00.606-.382h-.017zm1.461-2.747a.463.463 0 01.318-.435.484.484 0 01.189-.022.477.477 0 01.346.112.47.47 0 01.16.328.509.509 0 01-.506.507.506.506 0 01-.507-.507v.017zm.1.83h.83v2.797h-.83v-2.797zm1.56-1.046h.83v3.851h-.83v-3.851zm5.503 2.257v1.594h-.755v-.349a.935.935 0 01-.83.391c-.656 0-1.038-.366-1.038-.83 0-.465.341-.83 1.196-.83h.647c0-.349-.208-.548-.647-.548a1.362 1.362 0 00-.83.257l-.291-.564c.359-.23.778-.348 1.204-.341.854-.025 1.344.374 1.344 1.22zm-.83.706v-.282h-.556c-.382 0-.498.141-.498.323 0 .183.166.341.457.341a.61.61 0 00.622-.382h-.025zm4.441-2.963v3.851h-.772v-.324a1.102 1.102 0 01-.88.366 1.449 1.449 0 01-1.335-1.44 1.445 1.445 0 011.335-1.441 1.065 1.065 0 01.83.341v-1.353h.822zm-.83 2.448a.713.713 0 00-.484-.61.71.71 0 00-.754.195.712.712 0 00-.127.768.72.72 0 00.651.428.705.705 0 00.747-.739l-.033-.042zm4.424-2.448v3.851h-.781v-.324a1.085 1.085 0 01-.83.366 1.444 1.444 0 010-2.881 1.063 1.063 0 01.83.341v-1.353h.781zm-.83 2.448a.713.713 0 00-.484-.61.71.71 0 00-.754.195.712.712 0 00-.127.768.717.717 0 00.651.428.705.705 0 00.747-.739l-.033-.042zm3.303-1.436v.747h-.183a.692.692 0 00-.738.781v1.319h-.83v-2.797h.78v.374a1.095 1.095 0 01.971-.424zm3.179 1.669h-2.108c.043.18.152.338.306.442.153.105.34.148.524.122a.947.947 0 00.697-.274l.431.465a1.66 1.66 0 01-2.747-.988 1.437 1.437 0 01.438-1.039 1.436 1.436 0 011.056-.396 1.371 1.371 0 011.048.404 1.38 1.38 0 01.405 1.048c-.013.073-.03.145-.05.216zm-2.125-.473h1.378a.699.699 0 00-1.143-.423.702.702 0 00-.235.423zm2.407 1.378l.274-.581c.292.178.628.273.971.273.374 0 .515-.099.515-.257 0-.456-1.66 0-1.66-1.104 0-.531.473-.904 1.286-.904a2.26 2.26 0 011.079.249l-.274.572a1.574 1.574 0 00-.83-.207c-.357 0-.514.116-.514.257 0 .481 1.66 0 1.66 1.121 0 .514-.482.888-1.32.888a2.403 2.403 0 01-1.187-.307zm2.756 0l.274-.581c.292.178.628.273.971.273.373 0 .514-.099.514-.257 0-.456-1.66 0-1.66-1.104 0-.531.473-.904 1.287-.904.374-.008.745.078 1.079.249l-.274.572a1.577 1.577 0 00-.83-.207c-.357 0-.515.116-.515.257 0 .481 1.66 0 1.66 1.121 0 .514-.481.888-1.319.888a2.403 2.403 0 01-1.187-.307zm-31.723 27.431v-2.183l-1.062 1.801h-.349l-1.062-1.751v2.133h-.789v-3.627h.689l1.361 2.258 1.345-2.258h.689v3.635l-.822-.008zm4.316-1.137h-2.116c.043.18.152.338.306.442.153.105.34.148.524.122a.956.956 0 00.705-.273l.432.473a1.487 1.487 0 01-1.154.448 1.462 1.462 0 01-1.113-.367 1.443 1.443 0 01-.481-1.069 1.44 1.44 0 01.433-1.042 1.424 1.424 0 011.053-.402 1.402 1.402 0 011.366.885c.071.18.103.374.095.567-.033.033-.05.116-.05.216zm-2.125-.473h1.378a.7.7 0 00-.689-.59.696.696 0 00-.689.59zm2.407 1.353l.266-.581c.295.171.63.262.971.265.382 0 .515-.099.515-.249 0-.456-1.66 0-1.66-1.112 0-.523.481-.905 1.294-.905.372-.006.74.08 1.071.249l-.266.573a1.658 1.658 0 00-.83-.207c-.365 0-.522.116-.522.265 0 .473 1.66 0 1.66 1.112 0 .523-.49.889-1.32.889a2.5 2.5 0 01-1.179-.299zm2.756 0l.265-.581c.296.171.63.262.972.265.381 0 .514-.099.514-.249 0-.456-1.66 0-1.66-1.112 0-.523.482-.905 1.295-.905.372-.006.74.08 1.071.249l-.266.573a1.66 1.66 0 00-.83-.207c-.365 0-.523.116-.523.265 0 .473 1.66 0 1.66 1.112 0 .523-.49.889-1.32.889a2.498 2.498 0 01-1.178-.299zm5.494-1.336v1.593h-.755v-.307a.92.92 0 01-.83.39c-.647 0-1.037-.365-1.037-.83 0-.465.348-.83 1.195-.83h.647c0-.348-.207-.548-.647-.548a1.371 1.371 0 00-.83.258l-.291-.565a2.165 2.165 0 011.204-.34c.855-.025 1.344.332 1.344 1.179zm-.83.713v-.257h-.556c-.381 0-.498.141-.498.332 0 .191.166.332.457.332a.605.605 0 00.622-.407h-.025zm4.474-1.917v2.324c0 1.038-.556 1.511-1.569 1.511a2.302 2.302 0 01-1.369-.382l.324-.581c.287.208.633.318.987.315.573 0 .83-.257.83-.763v-.117a1.163 1.163 0 01-.888.349 1.353 1.353 0 010-2.706 1.131 1.131 0 01.93.407v-.357h.755zm-.83 1.303a.74.74 0 00-.853-.779.738.738 0 00.123 1.468.677.677 0 00.705-.399.685.685 0 00.058-.282l-.033-.008zm4.308.357h-2.117a.75.75 0 00.83.564.954.954 0 00.706-.273l.431.473a1.483 1.483 0 01-1.153.448 1.44 1.44 0 01-1.469-.849 1.45 1.45 0 01.293-1.605 1.427 1.427 0 011.018-.418 1.402 1.402 0 011.366.885c.071.181.103.374.095.568.016.024 0 .107 0 .207zm-2.125-.473h1.378a.696.696 0 00-1.378 0z" fill="#263238"/><path d="M336.266 245.68h-41.682a10.11 10.11 0 110-20.219h41.682a10.11 10.11 0 017.149 17.258 10.11 10.11 0 01-7.149 2.961z" fill="#0284C7"/><path d="M306.27 237.139l.39-.83a2.883 2.883 0 001.619.507c.672 0 .946-.224.946-.523 0-.922-2.855-.291-2.855-2.117 0-.83.672-1.535 2.075-1.535a3.255 3.255 0 011.701.44l-.348.83a2.808 2.808 0 00-1.362-.39c-.68 0-.938.257-.938.564 0 .905 2.864.282 2.864 2.092 0 .83-.681 1.518-2.092 1.518a3.455 3.455 0 01-2-.556zm8.483-1.095h-2.856a.996.996 0 001.079.755 1.265 1.265 0 00.947-.365l.589.631a2.217 2.217 0 01-3.727-1.337 1.938 1.938 0 01.593-1.409 1.935 1.935 0 011.432-.533 1.885 1.885 0 011.842 1.193c.095.244.137.505.126.766 0 .083-.017.207-.025.299zm-2.872-.639h1.859a.946.946 0 00-1.859 0zm7.495.05v2.166h-1.104v-1.992c0-.614-.274-.897-.764-.897-.489 0-.904.324-.904 1.021v1.868h-1.096v-3.777h1.046v.44a1.66 1.66 0 011.253-.498 1.488 1.488 0 011.569 1.669zm4.88-3.055v5.212h-1.046v-.431a1.446 1.446 0 01-1.178.489 1.951 1.951 0 010-3.892 1.45 1.45 0 011.129.456V232.4h1.095zm-1.071 3.32a.967.967 0 00-.655-.837.977.977 0 00-1.029.265.98.98 0 00-.242.499.971.971 0 00.964 1.127.953.953 0 00.715-.313.97.97 0 00.247-.741z" fill="#fff"/><path d="M184.119 57.76a17.763 17.763 0 00-1.909-.083 7.784 7.784 0 00-4.706 1.884 7.64 7.64 0 00-1.967 8.922 7.608 7.608 0 005.306 4.3 7.577 7.577 0 004.695-.482 7.276 7.276 0 001.918-1.22 7.118 7.118 0 001.427-1.66 7.63 7.63 0 00.498-7.27 7.833 7.833 0 00-3.461-3.678 17.578 17.578 0 00-1.768-.713 5.82 5.82 0 011.843.564 7.745 7.745 0 013.693 3.694 7.854 7.854 0 01.772 3.585 7.958 7.958 0 01-1.22 4.034 7.941 7.941 0 01-3.503 3.046 7.934 7.934 0 01-9.254-2.017 7.471 7.471 0 01-1.353-2.017 7.32 7.32 0 01-.622-2.207 7.892 7.892 0 012.763-7.113 7.821 7.821 0 014.897-1.827c.66-.02 1.319.067 1.951.258z" fill="#0284C7"/><path d="M179.745 58.1a68.376 68.376 0 013.751 6.715 65.82 65.82 0 013.32 6.914 73.216 73.216 0 01-3.743-6.715 67.283 67.283 0 01-3.328-6.914zm1.585-.44a63.304 63.304 0 013.636 6.499 66.066 66.066 0 013.261 6.698 64.096 64.096 0 01-3.643-6.499 64.762 64.762 0 01-3.254-6.698zm1.834.025a50.065 50.065 0 013.213 5.694 48.168 48.168 0 012.838 5.893 50.95 50.95 0 01-3.22-5.694 50.202 50.202 0 01-2.831-5.893zm1.976.29a34.245 34.245 0 012.631 4.574 31.815 31.815 0 012.241 4.772 34.136 34.136 0 01-2.631-4.573 31.726 31.726 0 01-2.241-4.773zm-6.823 1.046a67.59 67.59 0 013.752 6.715 67.423 67.423 0 013.37 6.914 67.09 67.09 0 01-3.752-6.715 69.523 69.523 0 01-3.37-6.914zm-1.419.922a67.688 67.688 0 013.752 6.706 69.322 69.322 0 013.32 6.914 67.09 67.09 0 01-3.752-6.715 69.504 69.504 0 01-3.32-6.905zm-1.145 1.477a49.897 49.897 0 013.261 5.81 50.648 50.648 0 012.88 5.984 50.624 50.624 0 01-3.261-5.81 51.461 51.461 0 01-2.88-5.984zm-.847 1.992a31.137 31.137 0 012.614 4.54 32.403 32.403 0 012.233 4.74 31.653 31.653 0 01-2.614-4.54 30.94 30.94 0 01-2.233-4.74zm70.318 172.117c-.05 0-.332-.606-1.154-1.527a7.745 7.745 0 00-4.441-2.432 7.581 7.581 0 00-6.905 2.341 7.6 7.6 0 00-1.926 3.967 7.557 7.557 0 004.084 7.976c.679.353 1.41.594 2.166.714a7.376 7.376 0 002.175.05 7.706 7.706 0 006.572-6.077 7.704 7.704 0 00-.007-3.161c-.266-1.195-.614-1.801-.564-1.826a6.03 6.03 0 01.73 1.793 7.732 7.732 0 01-.515 5.196 7.838 7.838 0 01-2.282 2.871 7.959 7.959 0 01-3.885 1.66 7.637 7.637 0 01-2.299 0 7.75 7.75 0 01-2.282-.738 7.948 7.948 0 01-4.308-8.433 7.468 7.468 0 01.739-2.283 7.589 7.589 0 011.311-1.884 7.91 7.91 0 017.246-2.374 7.774 7.774 0 014.524 2.632c.418.455.763.973 1.021 1.535z" fill="#0284C7"/><path d="M242.177 232.4a69.943 69.943 0 01-2.813 7.163 68.817 68.817 0 01-3.204 6.98 69.648 69.648 0 012.805-7.154 69.362 69.362 0 013.212-6.989zm1.353.913a63.932 63.932 0 01-2.714 6.939 64.38 64.38 0 01-3.112 6.764 63.102 63.102 0 012.714-6.93 65.963 65.963 0 013.112-6.773zm1.146 1.436a50.078 50.078 0 01-2.366 6.1 47.835 47.835 0 01-2.755 5.926 49.05 49.05 0 012.365-6.1 47.84 47.84 0 012.756-5.926zm1.004 1.71a32.35 32.35 0 01-1.859 4.938 32.78 32.78 0 01-2.266 4.756 32.504 32.504 0 011.867-4.93 33.139 33.139 0 012.258-4.764zm-5.113-4.598a71.146 71.146 0 01-2.813 7.154 70.847 70.847 0 01-3.204 6.989c.8-2.438 1.737-4.83 2.805-7.163a65.506 65.506 0 013.212-6.98zm-1.618-.523a66.764 66.764 0 01-2.806 7.154 68.422 68.422 0 01-3.203 6.989 67.927 67.927 0 012.805-7.155 68.314 68.314 0 013.204-6.988zm-1.843.033a50.856 50.856 0 01-2.399 6.192 51.229 51.229 0 01-2.797 6.017 51.7 51.7 0 012.399-6.2 51.117 51.117 0 012.797-6.009zm-2.1.63a32.63 32.63 0 01-1.851 4.897 30.217 30.217 0 01-2.249 4.731 32.711 32.711 0 011.851-4.897 31.273 31.273 0 012.249-4.731zm125.28-154.496a22.594 22.594 0 00-.522-3.46 13.72 13.72 0 00-1.594-3.76 14.11 14.11 0 00-16.932-5.985 13.073 13.073 0 00-3.552 1.917c-.562.414-1.094.866-1.594 1.353a15.3 15.3 0 00-1.378 1.66 13.977 13.977 0 000 16.6c.42.585.88 1.14 1.378 1.66.5.487 1.032.94 1.594 1.353a13.068 13.068 0 003.552 1.917 14.11 14.11 0 0016.932-5.984 13.72 13.72 0 001.594-3.76 22.58 22.58 0 00.522-3.46c.01.076.01.154 0 .231v.681c.002.37-.029.74-.091 1.104a9.86 9.86 0 01-.274 1.486 13.578 13.578 0 01-1.544 3.843 14.399 14.399 0 01-9.686 6.839c-2.537.479-5.157.27-7.586-.606a13.62 13.62 0 01-3.668-1.959 16.126 16.126 0 01-1.66-1.394 15.48 15.48 0 01-1.42-1.66 14.377 14.377 0 010-17.107c.438-.582.912-1.137 1.42-1.66a16.139 16.139 0 011.66-1.394 13.636 13.636 0 013.693-2.05 14.318 14.318 0 0113.645 2.125 14.21 14.21 0 013.627 4.15 13.58 13.58 0 011.544 3.843c.13.493.222.995.274 1.502.062.365.093.734.091 1.104v.68a.945.945 0 01-.025.191z" fill="#0284C7"/><path d="M357.954 69.836c.075.091-4.689 4.2-10.649 9.13-5.959 4.93-10.848 9.014-10.923 8.881-.074-.133 4.69-4.15 10.649-9.13 5.96-4.98 10.848-8.997 10.923-8.88zm1.436 2.656c.075.091-4.548 4.067-10.317 8.89-5.768 4.822-10.516 8.656-10.591 8.565-.074-.091 4.54-4.075 10.317-8.898 5.777-4.822 10.5-8.648 10.591-8.557zm.656 3.278c.083.092-3.968 3.595-9.031 7.828-5.063 4.233-9.238 7.586-9.312 7.47-.075-.117 3.967-3.594 9.03-7.827 5.063-4.233 9.238-7.562 9.313-7.47zm.24 3.644c.075.092-3.17 2.93-7.254 6.342-4.083 3.41-7.47 6.1-7.536 6.009-.067-.091 3.17-2.93 7.262-6.341 4.092-3.412 7.462-6.1 7.528-6.01zm-4.523-11.769c.083.091-4.69 4.2-10.641 9.13-5.951 4.93-10.856 8.94-10.931 8.848-.074-.092 4.69-4.2 10.649-9.18 5.96-4.98 10.848-8.89 10.923-8.798zm-2.183-2.191c.075.091-4.698 4.2-10.649 9.13-5.951 4.93-10.848 8.98-10.931 8.89-.083-.092 4.69-4.2 10.649-9.18 5.959-4.98 10.848-8.931 10.931-8.84zm-3.046-1.478c.075.092-4.026 3.644-9.172 7.944-5.146 4.299-9.362 7.702-9.445 7.61-.083-.09 4.026-3.651 9.172-7.942 5.146-4.292 9.37-7.678 9.445-7.612zm-3.934-.73c.074.091-3.154 2.913-7.205 6.3-4.05 3.386-7.412 6.059-7.47 5.967-.058-.09 3.146-2.913 7.205-6.3 4.058-3.386 7.395-6.058 7.47-5.967zm-15.795-4.333a2.656 2.656 0 100-5.311 2.656 2.656 0 000 5.311zm-73.92 172.018a2.652 2.652 0 01-1.634 2.46 2.653 2.653 0 01-2.897-.571 2.655 2.655 0 01.399-4.089 2.655 2.655 0 014.132 2.2z" fill="#0284C7"/><path d="M131.273 90.47a9.664 9.664 0 00-8.508-8.093 12.718 12.718 0 01-3.32-.365 19.13 19.13 0 01-2.365-1.353 6.449 6.449 0 00-7.877 1.66c-1.66 2.167-2.382-.83-6.374 1.528-3.32 1.967-1.577 4.697-1.577 4.697a7.412 7.412 0 00-7.346 5.86c-.39 2.133 0 4.723-1.66 6.117-.83.673-1.925.83-2.764 1.503-1.543 1.195-1.593 3.502-1.245 5.419.349 1.918.947 3.951.233 5.81-1.17 2.98-5.412 4.15-5.935 7.321-.249 1.494.374 3.32-.664 4.382-.46.396-.99.706-1.56.913a6.753 6.753 0 00-3.78 5.921 6.747 6.747 0 003.53 6.073c.598.324 1.32.631 1.545 1.278.224.648-.216 1.469-.556 2.15a6.49 6.49 0 009.23 8.416 10.135 10.135 0 006 4.673 6.14 6.14 0 003.544.091 6.86 6.86 0 002.44-1.494c3.453-3.013 8.3-7.611 8.616-12.184" fill="#263238"/><path d="M99.517 107.136a4.037 4.037 0 01-1.602 0 9.4 9.4 0 01-6.35-4.15 3.898 3.898 0 01-.672-1.444c.333.404.641.828.922 1.27a11.074 11.074 0 002.73 2.49 11.215 11.215 0 003.428 1.453 12.21 12.21 0 011.544.381zm2.316-10.499a3.49 3.49 0 01-1.038 1.037 9.196 9.196 0 01-6.731 1.719 3.486 3.486 0 01-1.411-.415c1.613.197 3.247.13 4.839-.2a14.62 14.62 0 004.341-2.141zM84.868 148.57h-.142a3.981 3.981 0 01-.415-.124c-.518-.197-1-.478-1.427-.83a5.515 5.515 0 01-1.66-2.017 5.396 5.396 0 01-.399-3.403 5.597 5.597 0 01.74-1.876c.4-.624.892-1.184 1.46-1.66a7.707 7.707 0 001.51-1.66 2.243 2.243 0 00.067-2.15 10.867 10.867 0 00-1.486-2.017 7.304 7.304 0 01-.772-1.112 4.234 4.234 0 01-.448-1.336 4.733 4.733 0 012.573-4.872 15.431 15.431 0 012.806-.656 3.223 3.223 0 001.195-.506c.332-.248.574-.598.689-.996a3.959 3.959 0 00-.274-2.49c-.324-.789-.772-1.536-1.063-2.333a3.735 3.735 0 01-.174-2.49 4.024 4.024 0 011.42-1.9 10.95 10.95 0 013.834-1.611 8.547 8.547 0 003.021-1.377 3.803 3.803 0 001.262-2.1 2.366 2.366 0 00-.15-1.544c-.157-.332-.307-.465-.282-.481.153.117.278.267.365.439.262.494.344 1.063.233 1.611a3.866 3.866 0 01-1.27 2.257 8.468 8.468 0 01-3.096 1.486 10.78 10.78 0 00-3.694 1.602 3.577 3.577 0 00-1.278 1.735 3.32 3.32 0 00.183 2.249c.282.763.722 1.486 1.07 2.316.392.857.497 1.817.3 2.739a2.36 2.36 0 01-.83 1.22 3.634 3.634 0 01-1.354.589 15.4 15.4 0 00-2.722.622 4.313 4.313 0 00-2.332 4.416c.064.42.196.826.39 1.204.21.372.455.725.73 1.054.59.638 1.1 1.346 1.52 2.108a2.63 2.63 0 01-.1 2.49 7.582 7.582 0 01-1.594 1.718 7.029 7.029 0 00-1.42 1.535 5.306 5.306 0 00-.722 1.768 5.154 5.154 0 00.316 3.237c.346.77.866 1.449 1.519 1.984.566.488 1.208.88 1.9 1.162z" fill="#455A64"/><path d="M171.005 356.319h-89.4v4.747h89.4v-4.747z" fill="#E0E0E0"/><path d="M170.98 361.05v-1.179c0-.83 0-1.975-.042-3.569l.067.067c-11.62.083-47.269.149-89.4.149l.216-.216v4.748l-.215-.216 63.312.092 19.09.066h7.013-6.905l-19.024.066-63.47.092h-.216v-5.08h.216c42.131 0 77.804.058 89.399.149h.067v.067c0 1.61 0 2.797-.042 3.602v.872a1.622 1.622 0 01-.066.29z" fill="#263238"/><path d="M90.968 274.033L72.094 401.537h6.291l17.082-125.844v-1.66h-4.499z" fill="#E0E0E0"/><path d="M90.968 274.033h4.557v1.718c-2.042 15.695-8.815 66.093-16.932 125.861v.191h-6.748v-.249c5.345-35.524 10.076-67.438 13.504-90.47 1.726-11.487 3.12-20.75 4.092-27.166.481-3.187.83-5.661 1.12-7.354l.29-1.9c.076-.424.117-.631.117-.631s0 .224-.083.664c-.083.44-.15 1.095-.274 1.934-.24 1.66-.598 4.15-1.062 7.403a34890.8 34890.8 0 01-3.96 27.233c-3.386 22.999-8.067 54.846-13.28 90.304l-.215-.249h6.3l-.216.182c8.142-59.768 15.014-110.174 17.272-125.82v-1.66l.05.05h-3.387l-1.145-.041z" fill="#263238"/><path d="M161.618 274.033l19.272 127.504h-6.3l-17.471-125.844v-1.66h4.499z" fill="#E0E0E0"/><path d="M161.618 274.033h-4.499l.05-.05v1.66c2.266 15.67 9.329 66.043 17.629 125.82l-.207-.183h6.291l-.216.249c-5.32-35.449-10.109-67.305-13.562-90.304-1.71-11.512-3.088-20.8-4.05-27.232-.465-3.212-.83-5.702-1.088-7.404-.116-.83-.207-1.486-.274-1.934a11.173 11.173 0 01-.083-.664s.042.208.117.631c.074.423.166 1.079.298 1.901.266 1.66.648 4.15 1.146 7.354.987 6.407 2.407 15.678 4.15 27.165 3.502 23.033 8.35 54.922 13.753 90.421v.249h-6.731v-.191c-8.3-59.76-15.239-110.166-17.331-125.861v-1.719h3.47c.796.075 1.137.092 1.137.092z" fill="#263238"/><path d="M126.94 274.033h-5.378v127.504h5.378V274.033z" fill="#E0E0E0"/><path d="M126.94 401.537v-10.001c0-6.433-.041-15.72-.066-27.224 0-23-.058-54.847-.091-90.279l.215.215h-5.378l.216-.215c0 61.046-.067 112.465-.158 127.504l-.058-.058h5.378-5.436v-.058c-.091-15.04-.158-66.458-.158-127.505v-.215h5.81v.215c0 35.5-.066 67.396-.083 90.47 0 11.488-.058 20.75-.066 27.175v9.254c0 .44-.125.722-.125.722z" fill="#263238"/><path d="M162.688 265.509H88.893v9.586h73.795v-9.586z" fill="#455A64"/><path d="M111.427 265.782a22.303 22.303 0 01-2.697 2.308 29.334 29.334 0 01-3.237 2.033 28.98 28.98 0 01-8.806 3.038 28.023 28.023 0 01-3.802.39 22.61 22.61 0 01-3.51-.124h3.527a29.562 29.562 0 003.776-.424 33.18 33.18 0 004.507-1.17 33.82 33.82 0 004.258-1.851 30.316 30.316 0 003.237-1.992c.88-.631 1.577-1.17 2.034-1.568l.531-.449.182-.191zm10.583 6.3l-.183-.066c-.116-.05-.29-.141-.523-.232a9.83 9.83 0 00-5.561-.424 9.368 9.368 0 00-4.033 1.959v-.116c2.669.651 5.412.95 8.159.888a30.773 30.773 0 004.672-.473 7.018 7.018 0 002.324-.681c.351-.203.619-.523.756-.905a1.82 1.82 0 00-.042-1.186 2.955 2.955 0 00-2.149-1.743 16.484 16.484 0 00-2.831-.391 30.006 30.006 0 00-5.411.108 31.133 31.133 0 00-14.276 5.312c-.606.407-1.054.764-1.362.996l-.473.349s.15-.133.457-.373c.307-.241.73-.606 1.336-1.021a29.267 29.267 0 015.412-3.047 30.58 30.58 0 018.881-2.373 31.138 31.138 0 015.453-.125c.964.053 1.922.186 2.863.399.485.129.943.342 1.353.63.414.31.729.734.905 1.22.154.421.154.883 0 1.304-.145.42-.44.772-.83.987a7.13 7.13 0 01-2.382.706 30.327 30.327 0 01-4.706.465 30.885 30.885 0 01-8.192-.913h-.125l.1-.083a9.444 9.444 0 014.15-1.968 9.702 9.702 0 013.461-.091 9.079 9.079 0 012.133.59c.407.174.664.298.664.298zm9.537-6.324c.171.019.339.064.498.132a3.56 3.56 0 011.162.83c.484.518.824 1.153.987 1.843a4.56 4.56 0 01-.207 2.556 6.144 6.144 0 01-3.187 3.279 8.173 8.173 0 01-1.32.481l-.374.092h-.132c.155-.072.316-.13.481-.175a8.542 8.542 0 001.287-.531 6.083 6.083 0 003.079-3.229 4.35 4.35 0 00.216-2.49 3.977 3.977 0 00-.922-1.801 3.914 3.914 0 00-1.568-.987zm11.553-.042c-.559.236-1.1.513-1.618.83a11.017 11.017 0 00-3.096 3.038 24.178 24.178 0 00-2.092 3.843l-.547 1.212c-.133.282-.208.44-.216.44.03-.161.08-.317.149-.465.116-.299.282-.722.498-1.237a21.1 21.1 0 012.067-3.893 10.562 10.562 0 013.17-3.046 7.06 7.06 0 011.212-.572c.115-.042.231-.078.349-.108.075-.042.124-.05.124-.042zm12.749 5.694l-.432-.191a7.533 7.533 0 00-1.269-.407 7.26 7.26 0 00-4.773.532 1.34 1.34 0 00-.598.464.56.56 0 00.075.689c.463.35.99.604 1.552.747 1.227.437 2.504.716 3.802.83 1.427.124 2.865.054 4.274-.207a4.344 4.344 0 002.042-.83 1.796 1.796 0 00.465-2.05 2.994 2.994 0 00-1.569-1.586 10.179 10.179 0 00-2.15-.713 15.065 15.065 0 00-4.266-.349 14.75 14.75 0 00-6.872 2.183 15.394 15.394 0 00-3.694 3.204c-.373.456-.639.83-.83 1.07l-.274.382c.304-.524.648-1.023 1.03-1.494a15.488 15.488 0 013.718-3.353 14.816 14.816 0 016.931-2.233 15.16 15.16 0 014.316.341c.752.157 1.484.4 2.182.722a3.211 3.211 0 011.66 1.66c.151.385.189.806.108 1.211-.095.4-.313.76-.622 1.03-.618.48-1.35.789-2.125.896a15.99 15.99 0 01-4.324.208 16.453 16.453 0 01-3.835-.83 13.6 13.6 0 01-.83-.324 2.021 2.021 0 01-.755-.482.687.687 0 01-.083-.83c.167-.223.39-.397.647-.506a7.305 7.305 0 014.847-.481 5.799 5.799 0 011.652.697z" fill="#263238"/><path d="M108.008 143.59a12.52 12.52 0 00-6.433 5.586c-2.415 4.274-1.767 6.383-1.137 8.914.631 2.532 1.743 7.537 1.801 7.213.058-.324 5.769-21.713 5.769-21.713zm.265.025l5.08-3.013 23.614-8.84-4.64 39.691-17.43 10.973-10.325-5.163-1.03-11.487 4.731-22.161z" fill="#A36957"/><path d="M107.659 204.014l-9.23 11.969-11.437-2.69-9.146 5.113 2.423 4.308 24.27 1.627 8.557-17.638-5.437-2.689z" fill="#7C3B29"/><path d="M79.655 318.902l9.313 20.186 15.023-6.947-9.628-24.975-14.708 11.736z" fill="#A36957"/><path d="M87.208 337.735l5.437 10.375s-13.928 14.401-12.616 17.621l32.735-15.695-9.014-20.808-16.542 8.507z" fill="#0284C7"/><path d="M102.09 341.835a1.49 1.49 0 011.66 1.088 1.425 1.425 0 01-1.054 1.66 1.573 1.573 0 01-1.751-1.154 1.488 1.488 0 011.294-1.602" fill="#E0E0E0"/><path d="M112.764 350.036l-1.361-2.615-30.893 16.028s-1.154 1.328-.498 2.282l32.752-15.695z" fill="#fff" opacity=".6"/><path d="M92.039 348.202c.074.157.913-.158 1.942 0 1.03.157 1.776.605 1.892.473.117-.133-.564-.947-1.817-1.088-1.254-.141-2.125.482-2.017.615zm-2.756 3.062c0 .175.83.117 1.727.532.896.415 1.369 1.054 1.518.971.15-.083-.174-1.038-1.261-1.536s-2.059-.141-1.984.033zm.017 5.047c.166 0 0-.946-.83-1.66s-1.743-.673-1.743-.507c0 .166.68.415 1.353.98.672.564 1.054 1.245 1.22 1.187zm1.17-12.11c.141.116.764-.457 1.66-.83.896-.374 1.776-.423 1.793-.598.016-.174-.938-.423-2.025 0-1.088.424-1.56 1.345-1.428 1.428zm-.954-2.075s-.166-.207-.308-.656a4.795 4.795 0 01-.149-1.975c.017-.227.068-.451.15-.664a.828.828 0 01.655-.531.577.577 0 01.49.166.83.83 0 01.199.448c.021.276.021.554 0 .83 0 .556 0 1.087-.133 1.726a1.034 1.034 0 01-.68.83c-.332.1-.683.115-1.021.042a8.23 8.23 0 01-2.598-.921 2.378 2.378 0 01-.73-.557.769.769 0 010-.971.922.922 0 01.83-.207c.448.12.88.296 1.286.523a7.029 7.029 0 011.585 1.178c.324.332.473.54.448.565a13.084 13.084 0 00-2.174-1.469 5.446 5.446 0 00-1.204-.449.609.609 0 00-.53.108.399.399 0 00.049.482c.177.179.385.325.614.431.247.137.502.259.764.366.534.225 1.09.392 1.66.498.272.07.558.07.83 0a.603.603 0 00.406-.498c.075-.532.1-1.146.15-1.66a4.77 4.77 0 000-.756c0-.216-.116-.315-.274-.307-.357 0-.481.506-.54.888a6.807 6.807 0 00.225 2.54zM79.44 325.833l-23.714-59.021s.548-10.475 2.49-13.786c1.942-3.312 60.391-22.618 60.391-22.618s14.89-3.577 24.817 0 17.372 16.002 15.994 22.891c-1.378 6.889-7.196 11.961-7.196 11.961l-42.994 1.278-23.43 8.549 15.769 45.235s-8.06 8.823-22.128 5.511z" fill="#263238"/><path d="M58.44 286.267l-.556 22.219 16.55.398 2.383-26.659-18.377 4.042z" fill="#A36957"/><path d="M56.897 306.494l.307 11.711s-18.85 6.773-19.09 10.243l36.295.365 1.121-22.643-18.633.324z" fill="#0284C7"/><path d="M68.442 316.745a1.494 1.494 0 011.012 1.709 1.435 1.435 0 01-1.66 1.013 1.57 1.57 0 01-1.054-1.809 1.478 1.478 0 011.86-.83" fill="#E0E0E0"/><path d="M74.401 328.813l-.066-2.947-34.777.756s-1.66.68-1.453 1.826l36.296.365z" fill="#fff" opacity=".6"/><path d="M56.614 318.015c0 .182.888.265 1.76.83.871.564 1.32 1.328 1.486 1.261.166-.066-.092-1.095-1.154-1.776-1.063-.681-2.125-.44-2.092-.315zm-3.818 1.535c-.05.174.722.481 1.312 1.237.589.755.763 1.552.938 1.543.174-.008.298-1.004-.457-1.925s-1.793-1.021-1.793-.855zm-2.216 4.54c.166 0 .424-.83 0-1.818-.423-.987-1.27-1.369-1.344-1.228-.075.141.431.672.78 1.477.348.805.39 1.544.564 1.569zm6.4-10.35c.074.166.888-.075 1.892 0s1.776.398 1.867.249c.092-.149-.647-.788-1.826-.83-1.178-.041-2.016.44-1.933.581zm.05-2.283a1.66 1.66 0 010-.722 4.835 4.835 0 01.73-1.842c.12-.195.266-.373.431-.531a.825.825 0 01.83-.183.59.59 0 01.365.365c.05.16.05.33 0 .49-.11.254-.237.501-.381.739-.283.473-.523.954-.88 1.485a1.034 1.034 0 01-.971.44 1.967 1.967 0 01-.938-.415 8.474 8.474 0 01-1.386-1.27 10.642 10.642 0 01-.54-.705 2.28 2.28 0 01-.406-.83.766.766 0 01.415-.888.91.91 0 01.83.199c.35.308.66.659.92 1.046.385.537.69 1.127.906 1.751.094.224.148.463.157.705a13.477 13.477 0 00-1.311-2.274 5.487 5.487 0 00-.88-.938.607.607 0 00-.523-.141.393.393 0 00-.166.457 2 2 0 00.357.655c.162.234.337.458.523.673.397.451.842.857 1.328 1.212.218.167.47.283.739.34a.626.626 0 00.589-.274c.299-.44.59-.979.83-1.428.138-.211.26-.433.365-.664.075-.207 0-.34-.108-.398-.332-.133-.655.241-.88.556a6.938 6.938 0 00-.946 2.39zm11.072-86.876s-9.96-.788-11.015 9.96c-1.054 10.749-2.19 60.939-2.19 60.939l23.164 1.934 3.586-51.302 36.96-15.704s-43.907-7.204-50.505-5.827z" fill="#263238"/><path d="M108.962 210.073s-6.017 16.866-4.872 18.75c1.146 1.884 16.6 9.611 16.6 9.611l38.711 14.865a32.424 32.424 0 003.976-16.035c0-9.72-13.462-27.191-13.462-27.191h-40.953z" fill="#263238"/><path d="M120.433 229.553s-.058 0-.183.1l-.547.249-2.142.954-8.051 3.511-27.78 11.952.125-.174c-.349 5.071-.73 10.541-1.12 16.201-.947 13.239-1.81 25.44-2.49 35.093v.174h-.167l-16.907-1.494-4.648-.432-1.212-.132a2.077 2.077 0 01-.415-.059 2.49 2.49 0 01.423 0l1.212.075 4.657.34 16.89 1.337-.183.157c.656-9.652 1.495-21.862 2.407-35.1.399-5.661.78-11.131 1.138-16.194v-.132l.116-.05 27.846-11.811 8.093-3.395 2.174-.896.565-.216.199-.058zm30.793 1.685a4.711 4.711 0 01-1.087-.299l-2.914-.938a63.974 63.974 0 00-9.76-2.49 28.484 28.484 0 00-9.96.133 39.39 39.39 0 00-4.001 1.154 5.627 5.627 0 011.004-.507 17.75 17.75 0 012.93-.946 26.643 26.643 0 0110.118-.257 54.26 54.26 0 019.786 2.598c1.22.431 2.199.83 2.88 1.071.349.127.685.289 1.004.481z" fill="#455A64"/><path d="M145.748 222.349a27.195 27.195 0 00-3.378 0c-1.046.066-2.283.232-3.669.39-1.386.158-2.888.348-4.457.647a20.6 20.6 0 00-7.586 2.814 23.16 23.16 0 00-2.631 2.116c.148-.272.338-.518.564-.73a11.547 11.547 0 011.893-1.66 19.48 19.48 0 017.677-2.98c1.585-.307 3.113-.481 4.499-.622 1.386-.141 2.631-.266 3.693-.299a13.46 13.46 0 012.49.108c.312.022.617.095.905.216z" fill="#455A64"/><path d="M108.008 143.59s-6.582 21.107-6.433 27.149c.15 6.043 2.656 23.24 2.366 26.56-.291 3.32.896 12.716 4.98 12.716h40.969s9.254-2.565 9.653-8.117c.398-5.553-12.45-59.478-12.45-59.478s-2.424-9.91-5.81-10.633c-3.387-.722-7.172 0-9.438 6.997-2.265 6.997-3.021 16.874-7.86 21.713-4.839 4.839-11.719 10.267-11.719 10.267s-5.553-4.648-5.81-10.939c-.258-6.292 2.108-16.476 2.108-16.476l-.556.241z" fill="#0284C7"/><path d="M151.135 147.292a8.81 8.81 0 00-4.507-3.461 21.434 21.434 0 00-5.661-1.088 15.153 15.153 0 00-5.154.183c-1.66.432-2.357 2.49-3.055 4.084a51.553 51.553 0 001.104 21.273 6.73 6.73 0 003.594 4.98 10.57 10.57 0 004.74 1.925c3.071.233 5.901-1.992 7.337-4.714 1.436-2.723 1.759-5.877 2.05-8.939.194-1.92.379-3.838.556-5.752.282-2.905.515-6.026-1.004-8.491z" fill="#A36957"/><path d="M114.075 210.53a3.899 3.899 0 01-1.618-.83 9.697 9.697 0 01-2.739-3.47 18.467 18.467 0 01-1.395-4.15 6.912 6.912 0 01-.282-1.801c.252.553.444 1.132.573 1.726.38 1.396.88 2.757 1.494 4.067a10.822 10.822 0 002.54 3.428c.83.664 1.46.963 1.427 1.03zm21.68-26.162a3.717 3.717 0 01-.689.581 13.53 13.53 0 01-2.117 1.236 12.917 12.917 0 01-3.502 1.046 12.051 12.051 0 01-4.466-.191 14.698 14.698 0 01-6.955-4.042 17.746 17.746 0 01-1.602-1.851 4.119 4.119 0 01-.481-.763c.066-.05.83.996 2.29 2.398a15.328 15.328 0 006.848 3.835c2.582.586 5.284.342 7.719-.697 1.901-.83 2.905-1.66 2.955-1.552z" fill="#263238"/><path d="M113.569 209.766c-.091.074-.656-.573-.83-1.577a2.266 2.266 0 01.183-1.785c.124 0 .058.789.24 1.66.183.872.548 1.635.407 1.702z" fill="#263238"/><path d="M130.542 147.192c-.372.08-.718.254-1.004.506-.32.315-.542.716-.639 1.154a1.808 1.808 0 00.373 1.66l.15.15-.208.066a3.867 3.867 0 00-2.315 2.075 3.96 3.96 0 00.083 3.743l.249.407-.465-.125a2.743 2.743 0 00-2.904 1.06 2.737 2.737 0 00-.068 3.09l-.381.191a1.52 1.52 0 00-1.893-.73 2.32 2.32 0 00-1.03.615 2.322 2.322 0 00-.588 1.045 8.78 8.78 0 00-.349 2.49l-.033 1.162-.357-1.145a1.39 1.39 0 00-1.544-.83 1.96 1.96 0 00-1.386 1.162c-.548 1.17-.216 2.49 0 3.56h-.332a1.84 1.84 0 00-.705-1.427 2.158 2.158 0 00-1.378-.515 1.796 1.796 0 00-1.66 1.502 2.18 2.18 0 00.199 1.544c.183.316.349.44.332.465a1.178 1.178 0 01-.415-.415 2.356 2.356 0 01.224-2.739 1.84 1.84 0 011.328-.631 2.442 2.442 0 011.585.548 2.21 2.21 0 01.83 1.66v1.369l-.323-1.328a11.482 11.482 0 01-.349-1.801 3.762 3.762 0 01.291-2 2.32 2.32 0 011.66-1.403 1.794 1.794 0 012.008 1.088l-.406.058a9.097 9.097 0 01.365-2.582c.142-.444.371-.855.672-1.211a2.48 2.48 0 011.245-.747 2.48 2.48 0 011.403 0 1.595 1.595 0 011.004.971l.598 1.66-.98-1.503a3.137 3.137 0 013.428-4.764l-.216.291a4.283 4.283 0 01-.541-2.036 4.282 4.282 0 01.492-2.048 4.073 4.073 0 012.539-2.191l-.058.216a2.005 2.005 0 01-.382-1.868 2.39 2.39 0 01.747-1.203c.228-.194.498-.33.789-.399.111.03.217.074.315.133z" fill="#0284C7"/><path d="M108.207 143.739s.05 0 .116.158c.088.173.138.362.15.556.016.316-.05.63-.191.913-.196.392-.539.69-.955.83v-.191a3.22 3.22 0 011.171 2.49 3.445 3.445 0 01-1.66 3.088v-.307a3.388 3.388 0 011.145 3.477 9.135 9.135 0 01-2.025 3.594l-.341-.265a1.591 1.591 0 011.292-.512 1.576 1.576 0 011.198.703 2.48 2.48 0 01.083 2.398 5.792 5.792 0 01-1.427 1.768l-.216-.357a2.36 2.36 0 013.21 2.41 2.348 2.348 0 01-.894 1.64 2.373 2.373 0 01-.855.424l-.473.133.282-.407a1.752 1.752 0 011.701-.639 2.597 2.597 0 011.461.697c.298.319.529.694.681 1.103.153.409.223.843.207 1.279a8.274 8.274 0 01-.132 1.61c-.02.187-.061.371-.125.548-.066 0 .108-.78.058-2.149a3.185 3.185 0 00-.88-2.183 2.418 2.418 0 00-1.228-.548 1.435 1.435 0 00-1.37.539l-.19-.274a2.079 2.079 0 001.352-2.348 2.03 2.03 0 00-1.767-1.473 2.036 2.036 0 00-.806.086l-.962.341.747-.697a5.448 5.448 0 001.319-1.66 2.02 2.02 0 00-.049-1.968 1.17 1.17 0 00-1.793-.182l-.341-.257a8.855 8.855 0 001.968-3.412 3.006 3.006 0 00-.955-3.096l-.241-.166.258-.149a3.11 3.11 0 001.519-2.756 3.04 3.04 0 00-1.005-2.332l-.174-.116.207-.058c.357-.12.654-.373.83-.706.144-.253.221-.539.225-.83a2.048 2.048 0 00-.125-.747z" fill="#0284C7"/><path d="M116.632 181.33a11.948 11.948 0 004.208 8.051 9.892 9.892 0 008.764 1.909 8.512 8.512 0 005.993-6.507 24.796 24.796 0 01-6.54 2.274 12.831 12.831 0 01-12.625-5.959c.108.124.224.24.332.357m-8.74 19.405a9.185 9.185 0 002.922 8.549 1.953 1.953 0 001.834.622 21.899 21.899 0 01-4.706-9.362" fill="#000" opacity=".3"/><path d="M140.137 140.328s-9.271 1.453-7.03 14.633c2.241 13.18 18.26 35.499 18.26 35.499l-35.018 21.356 4.084 9.487 45.476-18.717s4.482-4.614 2.905-9.752c-1.577-5.138-13.28-37.5-13.28-37.5s-4.325-17.247-15.397-15.006zm-54.34 79.622l12.533-7.918 16.6.78 1.394-.963 4.084 9.487s-4.474 2.141-6.814 2.332l-14.5-1.104-15.405-1.153 2.108-1.461z" fill="#A36957"/><path d="M151.326 190.717a7.657 7.657 0 01-.83-1.07 140.265 140.265 0 01-2.059-3.03 191.43 191.43 0 01-6.3-10.325 184.862 184.862 0 01-5.619-10.707 112.794 112.794 0 01-1.543-3.32 6.905 6.905 0 01-.515-1.245c.247.375.464.769.647 1.179l1.66 3.262a298.208 298.208 0 005.727 10.624c2.324 4.1 4.54 7.752 6.176 10.375l1.942 3.104c.271.363.51.749.714 1.153z" fill="#7C3B29"/><path d="M159.941 193.722a30.221 30.221 0 00-4.15-2.183 30.064 30.064 0 00-4.607-1.079 11.34 11.34 0 018.798 3.262h-.041z" fill="#7C3B29"/><path d="M35.316 180.384c.316.963 12.899 43.251 12.899 43.251l72.21 5.188 2.656-4.482-40.322-3.038-11.313-43.393a3.635 3.635 0 00-4.083-2.664l-32.047 5.138z" fill="#455A64"/><path d="M58.1 198.129c.606 1.262.357 2.64-.573 3.088-.93.448-2.166-.208-2.772-1.461-.606-1.253-.357-2.639.564-3.088.922-.448 2.175.208 2.781 1.461z" fill="#FAFAFA"/><path d="M121.695 226.698h-.822l-2.366-.133-8.748-.581-29.299-2.108h-.15l-.04-.141c-.39-1.361-.83-2.806-1.23-4.266l-8.855-31.175-2.631-9.446a456.872 456.872 0 01-.698-2.581c-.066-.274-.124-.49-.165-.672a.776.776 0 01-.05-.233c.04.07.072.146.091.224.05.175.124.391.207.664.191.615.449 1.461.772 2.549l2.773 9.412 8.98 31.1c.415 1.461.83 2.905 1.22 4.266l-.19-.158 29.29 2.25 8.732.713 2.357.208.614.066a.676.676 0 01.208.042z" fill="#263238"/><path d="M131.862 97.475l-.066-3.253-19.655-2.922c-6.042-.39-12.292 5.893-12.45 11.944-.15 6.723-.066 14.94.93 19.92 2.009 9.96 9.769 10.964 9.769 10.964l.448 9.96 22.253-.622-1.229-45.99z" fill="#A36957"/><path d="M103.875 110.29a1.276 1.276 0 001.294 1.245 1.222 1.222 0 00.898-.335 1.246 1.246 0 00.389-.876 1.294 1.294 0 00-1.295-1.254 1.24 1.24 0 00-1.286 1.22zm-1.868-2.846c.166.157 1.121-.606 2.49-.656 1.37-.05 2.432.597 2.573.423.141-.174-.1-.373-.556-.68a3.56 3.56 0 00-2.075-.548 3.435 3.435 0 00-1.984.73c-.365.357-.523.656-.448.731zm14.84 2.564a1.306 1.306 0 001.295 1.253 1.232 1.232 0 00.899-.34 1.255 1.255 0 00.388-.88 1.288 1.288 0 00-1.295-1.253 1.251 1.251 0 00-1.287 1.22zm-1.178-2.863c.166.166 1.112-.598 2.49-.648 1.378-.049 2.432.598 2.581.424.15-.175-.108-.382-.564-.681a3.481 3.481 0 00-2.067-.548 3.324 3.324 0 00-1.984.731c-.406.34-.539.647-.456.722zm-4.623 10.499a9.656 9.656 0 00-2.274-.315c-.357 0-.689-.075-.764-.316a1.828 1.828 0 01.199-1.062c.299-.83.606-1.784.938-2.739 1.295-3.901 2.224-7.105 2.067-7.155-.158-.049-1.337 3.071-2.64 6.972-.315.963-.614 1.876-.896 2.756a2.062 2.062 0 00-.125 1.394.888.888 0 00.606.498c.199.047.403.066.606.059a8.863 8.863 0 002.283-.092z" fill="#263238"/><path d="M110.39 134.145a26.703 26.703 0 0013.67-4.15s-3.112 7.179-13.562 6.64l-.108-2.49zm1.378-13.181c.25-.345.584-.62.971-.798a2.484 2.484 0 011.237-.223 2.281 2.281 0 011.61.83 1.453 1.453 0 01.174 1.66 1.661 1.661 0 01-1.801.531 5.32 5.32 0 01-1.818-.987 1.747 1.747 0 01-.415-.399.467.467 0 010-.514" fill="#7C3B29"/><path d="M115.171 118.441c-.224 0-.166 1.502-1.419 2.623-1.254 1.12-2.856 1.021-2.856 1.236 0 .216.365.274 1.046.266a3.78 3.78 0 002.391-.946 3.248 3.248 0 001.087-2.191c.033-.631-.15-1.005-.249-.988zm-.083-16.716c.149.365 1.527.133 3.162.265 1.635.133 2.972.523 3.179.175.091-.166-.158-.515-.697-.83a5.497 5.497 0 00-4.831-.341c-.589.266-.88.548-.813.731zm-12.732 1.676c.257.308 1.203-.058 2.349-.124 1.145-.066 2.133.133 2.348-.208.092-.166-.074-.473-.514-.755a3.243 3.243 0 00-1.934-.44 3.327 3.327 0 00-1.851.706c-.39.34-.515.672-.398.821z" fill="#263238"/><path d="M97.11 91.068c1.66 3.519 5.246 8.756 9.13 9.13a11.386 11.386 0 0010.118-4.565c.647 2.855 3.867 4.307 6.764 4.714 2.046.372 4.155.18 6.101-.556a6.092 6.092 0 003.776-4.573c.266-2.05-2.764-7.006-4.806-7.346" fill="#263238"/><path d="M128.509 142.478a7.946 7.946 0 005.81 7.038 5.622 5.622 0 004.509 5.709 5.622 5.622 0 006.364-3.526 6.55 6.55 0 01.83-1.901c.979-1.253 2.905-1.004 4.415-1.494 2.723-.879 3.901-4.216 3.594-7.063a6.836 6.836 0 01-.074-1.66c.166-1.137 1.062-2.009 1.726-2.955 2.739-3.884 1.594-9.52-1.444-13.18-1.013-1.22-2.291-2.49-2.191-4.075a8.36 8.36 0 01.83-2.49 7.2 7.2 0 00-1.934-7.844 2.234 2.234 0 01-.83-.996 2.146 2.146 0 010-.83 8.411 8.411 0 00-7.105-8.972 2.047 2.047 0 01-.739-.166c-.647-.34-.672-1.229-.755-1.95-.224-1.918-1.66-5.487-3.162-6.74-4.067-3.47-8.002-.648-9.404.672 0 0-2.781 13.778-2.241 16.351.539 2.573 2.423 8.964 1.66 11.869-.764 2.905-1.967 8.856-.83 11.479 1.137 2.623.971 12.724.971 12.724z" fill="#263238"/><path d="M143.698 98.147s-.174.183-.531.44c-.515.357-1.053.678-1.611.963a19.73 19.73 0 01-12.076 1.984 12.223 12.223 0 01-1.843-.407 2.49 2.49 0 01-.647-.232c0-.075.971.166 2.49.34 2.026.218 4.072.165 6.084-.158a22.292 22.292 0 005.81-1.8c1.461-.656 2.282-1.188 2.324-1.13zm1.328.98a3.887 3.887 0 01-.299.83c-.123.318-.27.626-.44.921a11.51 11.51 0 01-.672 1.171 18.144 18.144 0 01-2.175 2.78 20.392 20.392 0 01-3.32 2.772 20.823 20.823 0 01-3.851 1.959 17.794 17.794 0 01-3.411.896c-.445.083-.894.138-1.345.166-.34.024-.681.024-1.021 0-.291.026-.585.01-.871-.049 0-.083 1.245-.067 3.179-.449a19.818 19.818 0 003.32-.971 20.369 20.369 0 007.03-4.631 19.691 19.691 0 002.199-2.673c1.129-1.61 1.594-2.755 1.677-2.722zm-7.204 51.186s.174 0 .481-.05a2.17 2.17 0 001.154-.697 2.924 2.924 0 00.755-1.976 9.456 9.456 0 00-.523-2.855 6.21 6.21 0 01-.249-3.635c.432-1.312 1.477-2.316 2.415-3.395.493-.524.9-1.124 1.204-1.776a2.53 2.53 0 00-.067-2.083 4.753 4.753 0 00-1.56-1.66c-.647-.473-1.361-.888-2.05-1.395a4.496 4.496 0 01-1.66-1.967 3.097 3.097 0 01.257-2.49c.78-1.436 2.001-2.49 2.283-3.843a4.619 4.619 0 00-1.021-3.693 16.248 16.248 0 00-2.424-2.59 16.543 16.543 0 01-2.025-2.183 6.626 6.626 0 01-1.054-2 4.253 4.253 0 01-.166-1.419c.011-.164.041-.326.091-.482a5.626 5.626 0 00.233 1.851 10.286 10.286 0 003.129 4.009c.925.77 1.76 1.641 2.49 2.598.414.55.741 1.16.971 1.809a3.88 3.88 0 01.149 2.183c-.323 1.544-1.593 2.623-2.291 3.959a2.61 2.61 0 00-.232 2.15c.319.72.841 1.331 1.502 1.76.656.489 1.378.904 2.042 1.394a5.153 5.153 0 011.66 1.818 2.924 2.924 0 01.067 2.415 6.858 6.858 0 01-1.287 1.892c-.963 1.088-1.975 2.059-2.374 3.237a5.98 5.98 0 00.175 3.428c.308.955.465 1.952.464 2.955a3.086 3.086 0 01-.871 2.075 2.145 2.145 0 01-1.262.664 1.13 1.13 0 01-.406-.008z" fill="#455A64"/><path d="M380.464 401.537c0 .117-77.448.216-172.956.216s-172.972-.099-172.972-.216c0-.116 77.431-.215 172.972-.215 95.542 0 172.956.091 172.956.215z" fill="#263238"/></svg>